{"title":"Sammys.Adventure.A.Turtles.Tale.2010.PROPER.1080p.x264.DTS.Shado","uid":9049628,"size":8010264260,"categoryP":"video","categoryS":"hd___movies","magnet":"?xt=urn:btih:4792dceed461e336f233ae9b72f8cc213b37dbc0&amp;dn=Sammys.Adventure.A.Turtles.Tale.2010.PROPER.1080p.x264.DTS.Shado&amp;tr=udp%3A%2F%2Ftracker.openbittorrent.com%3A80&amp;tr=udp%3A%2F%2Fopen.demonii.com%3A1337&amp;tr=udp%3A%2F%2Ftracker.coppersurfer.tk%3A6969&amp;tr=udp%3A%2F%2Fexodus.desync.com%3A6969","seeders":1,"leechers":0,"uploader":"shadoe.federation","files":1,"time":1381844825,"description":"So I looked all over the place for a 1080p copy of this with English sound. When I finally found it I was just disappointed to hear that it was British English, so I found the American English DVD and ripped the DTS audio from it. This is now the PROPER, as last release had issues with the sound. I also re-synced and edited the subtitles to match the American English version. This release has American English sound, with subtitles, and a Polish language track for my peoples. Hope you enjoy and seed if you download:)\nFor those interested, here's the MediaInfo:\nGeneral\nUnique ID : 182653315374668391062407090732587946086 (0x8969BFBB544B8C1D822E11C0A7DA1066)\nComplete name : C:UsersJerry ShadoeVideosA.Turtles.Tale.Sammys.Adventure.2010.1080p.BluRay.X264-AVCHDSammys.Adventure.A.Turtles.Tale.2010.PROPER.1080p.x264.DTS.Shadoe.mkv\nFormat : Matroska\nFormat version : Version 2\nFile size : 7.46 GiB\nDuration : 1h 25mn\nOverall bit rate : 12.5 Mbps\nMovie name : Sammys.Adventure.A.Turtles.Tale.2010.PROPER.1080p.x264.DTS.Shadoe\nEncoded date : UTC 2013-01-02 10:16:47\nWriting application : mkvmerge v2.9.8 ('C'est le bon') built on Aug 13 2009 12:49:06\nWriting library : libebml v0.7.7 + libmatroska v0.8.1\n\nVideo\nID : 1\nFormat : AVC\nFormat/Info : Advanced Video Codec\nFormat profile : &lt;a class=&quot;__cf_email__&quot; href=&quot;/cdn-cgi/l/email-protection&quot; data-cfemail=&quot;f7bf9e909fb7bbc3d9c6&quot;&gt;[email&amp;#160;protected]&lt;/a&gt;&lt;script cf-hash='f9e31' type=&quot;text/javascript&quot;&gt;\n/* &lt;![CDATA[ */!function(){try{var t=&quot;currentScript&quot;in document?document.currentScript:function(){for(var t=document.getElementsByTagName(&quot;script&quot;),e=t.length;e--;)if(t[e].getAttribute(&quot;cf-hash&quot;))return t[e]}();if(t&amp;&amp;t.previousSibling){var e,r,n,i,c=t.previousSibling,a=c.getAttribute(&quot;data-cfemail&quot;);if(a){for(e=&quot;&quot;,r=parseInt(a.substr(0,2),16),n=2;a.length-n;n+=2)i=parseInt(a.substr(n,2),16)^r,e+=String.fromCharCode(i);e=document.createTextNode(e),c.parentNode.replaceChild(e,c)}}}catch(u){}}();/* ]]&gt; */&lt;/script&gt;\nFormat settings, CABAC : Yes\nFormat settings, ReFrames : 4 frames\nFormat settings, GOP : M=4, N=32\nCodec ID : V_MPEG4/ISO/AVC\nDuration : 1h 25mn\nBit rate : 9 439 Kbps\nWidth : 1 920 pixels\nHeight : 1 080 pixels\nDisplay aspect ratio : 16:9\nFrame rate : 23.976 fps\nColor space : YUV\nChroma subsampling : 4:2:0\nBit depth : 8 bits\nScan type : Progressive\nBits/(Pixel*Frame) : 0.190\nStream size : 5.50 GiB (74%)\nTitle : Sammys.Adventure.A.Turtles.Tale.2010.PROPER.1080p.x264.DTS.Shadoe\nWriting library : x264 core 116 r2019 9cc407d\nEncoding settings : cabac=1 // deblock=1:0:0 / analyse=0x3:0x133 / me=umh / subme=7 / psy=1 / psy_rd=1.00:0.00 // me_range=16 / chroma_me=1 / trellis=1 / 8x8dct=1 / cqm=0 / deadzone=21,11 / fast_pskip=0 / chroma_qp_offset=-2 / threads=12 / sliced_threads=0 / nr=0 / decimate=1 / interlaced=0 / bluray_compat=0 / constrained_intra=0 / bframes=3 / b_pyramid=2 / b_adapt=1 / b_bias=0 / direct=1 / weightb=1 / open_gop=0 / weightp=2 / keyint=250 / keyint_min=23 / scenecut=40 / intra_refresh=0 / rc_lookahead=40 / rc=2pass / mbtree=1 / bitrate=9439 / ratetol=1.0 / qcomp=0.60 / qpmin=0 / qpmax=69 / qpstep=4 / cplxblur=20.0 / qblur=0.5 / ip_ratio=1.40 / aq=1:1.00\nLanguage : English\n\nAudio #1\nID : 2\nFormat : DTS\nFormat/Info : Digital Theater Systems\nCodec ID : A_DTS\nDuration : 1h 25mn\nBit rate mode : Constant\nBit rate : 1 510 Kbps\nChannel(s) : 6 channels\nChannel positions : Front: L C R, Side: L R, LFE\nSampling rate : 48.0 KHz\nBit depth : 24 bits\nCompression mode : Lossy\nStream size : 926 MiB (12%)\nTitle : Sammys.Adventure.A.Turtles.Tale.2010.PROPER.1080p.x264.DTS.Shadoe\nLanguage : English\n\nAudio #2\nID : 3\nFormat : DTS\nFormat/Info : Digital Theater Systems\nCodec ID : A_DTS\nDuration : 1h 25mn\nBit rate mode : Constant\nBit rate : 1 510 Kbps\nChannel(s) : 6 channels\nChannel positions : Front: L C R, Side: L R, LFE\nSampling rate : 48.0 KHz\nBit depth : 24 bits\nCompression mode : Lossy\nStream size : 926 MiB (12%)\nTitle : Sammys.Adventure.A.Turtles.Tale.2010.PROPER.1080p.x264.DTS.Shadoe\nLanguage : Polish\n\nText\nID : 4\nFormat : UTF-8\nCodec ID : S_TEXT/UTF8\nCodec ID/Info : UTF-8 Plain Text\nTitle : Sammys.Adventure.A.Turtles.Tale.2010.PROPER.1080p.x264.DTS.Shadoe\nLanguage : English\n\nMenu\n00:00:00.000 : en:(01)00:00:00:000\n00:07:18.597 : en:(02)00:07:18:597\n00:13:38.727 : en:(03)00:13:38:727\n00:19:52.309 : en:(04)00:19:52:309\n00:29:52.325 : en:(05)00:29:52:325\n00:37:01.337 : en:(06)00:37:01:337\n00:42:44.429 : en:(07)00:42:44:429\n00:49:44.974 : en:(08)00:49:44:974\n00:57:04.372 : en:(09)00:57:04:372\n01:04:44.456 : en:(10)01:04:44:456\n01:10:52.240 : en:(11)01:10:52:240\n01:18:39.707 : en:(12)01:18:39:707\n01:25:41.295 : en:(13)01:25:41:295\n","torrent":{"xt":"urn:btih:4792dceed461e336f233ae9b72f8cc213b37dbc0","amp;dn":"Sammys.Adventure.A.Turtles.Tale.2010.PROPER.1080p.x264.DTS.Shado","amp;tr":["udp%3A%2F%2Ftracker.openbittorrent.com%3A80","udp%3A%2F%2Fopen.demonii.com%3A1337","udp%3A%2F%2Ftracker.coppersurfer.tk%3A6969","udp%3A%2F%2Fexodus.desync.com%3A6969"],"infoHash":"4792dceed461e336f233ae9b72f8cc213b37dbc0","infoHashBuffer":{"type":"Buffer","data":[71,146,220,238,212,97,227,54,242,51,174,155,114,248,204,33,59,55,219,192]},"announce":[],"urlList":[]}}